<svg id="Layer_1" data-name="Layer 1" xmlns="http://www.w3.org/2000/svg" viewBox="0 0 247 51"><defs><style>.cls-1{fill:#fff;}</style></defs><path d="M68.83,36.66H64.61l7.68-21.82h4.88l7.69,21.82H80.64L74.82,19.32h-.17ZM69,28.11h11.5v3.17H69Z"/><path d="M91.42,27.07v9.59H87.57V20.3h3.68v2.78h.2a4.6,4.6,0,0,1,1.8-2.19,5.52,5.52,0,0,1,3.08-.81,5.87,5.87,0,0,1,3,.73,4.87,4.87,0,0,1,2,2.1,7.1,7.1,0,0,1,.69,3.33V36.66H98.07V26.84a3.68,3.68,0,0,0-.84-2.57,3,3,0,0,0-2.34-.93,3.54,3.54,0,0,0-1.8.45,3,3,0,0,0-1.22,1.27A4.15,4.15,0,0,0,91.42,27.07Z"/><path d="M111.93,37a6.21,6.21,0,0,1-3.45-1,6.7,6.7,0,0,1-2.41-2.88,10.72,10.72,0,0,1-.88-4.58,10.64,10.64,0,0,1,.9-4.61,6.63,6.63,0,0,1,2.43-2.84,6.36,6.36,0,0,1,3.42-1,5.15,5.15,0,0,1,2.37.49,4.48,4.48,0,0,1,1.47,1.16,7.68,7.68,0,0,1,.84,1.27h.16V14.84h3.87V36.66h-3.8V34.08h-.23a6.58,6.58,0,0,1-.86,1.26,4.72,4.72,0,0,1-1.49,1.14A5.21,5.21,0,0,1,111.93,37ZM113,33.78a3.36,3.36,0,0,0,2.09-.66,4.21,4.21,0,0,0,1.31-1.86,8.11,8.11,0,0,0,.44-2.78,7.69,7.69,0,0,0-.44-2.76,3.94,3.94,0,0,0-1.3-1.82,3.33,3.33,0,0,0-2.1-.65,3.37,3.37,0,0,0-2.15.67,4,4,0,0,0-1.3,1.85,7.59,7.59,0,0,0-.44,2.71,8,8,0,0,0,.44,2.73,4.23,4.23,0,0,0,1.31,1.89A3.32,3.32,0,0,0,113,33.78Z"/><path d="M124.77,36.66V20.3h3.74V23h.17a4.14,4.14,0,0,1,1.54-2.19,4.26,4.26,0,0,1,2.5-.77l.72,0a5,5,0,0,1,.66.08v3.55a4.13,4.13,0,0,0-.77-.16,9,9,0,0,0-1-.07,3.83,3.83,0,0,0-1.89.46,3.29,3.29,0,0,0-1.31,1.25,3.48,3.48,0,0,0-.48,1.84v9.62Z"/><path d="M143.23,37A8.3,8.3,0,0,1,139,36,6.87,6.87,0,0,1,136.24,33a9.71,9.71,0,0,1-1-4.46,9.73,9.73,0,0,1,1-4.43,7.25,7.25,0,0,1,2.7-3A7.66,7.66,0,0,1,143,20.08a8.46,8.46,0,0,1,2.86.49,6.53,6.53,0,0,1,2.39,1.5,7,7,0,0,1,1.63,2.57,10.34,10.34,0,0,1,.6,3.71v1.18H137.1v-2.6h9.71a4.25,4.25,0,0,0-.48-2,3.5,3.5,0,0,0-1.3-1.37,4,4,0,0,0-4,.07,4.08,4.08,0,0,0-1.4,1.49,4.32,4.32,0,0,0-.5,2v2.27a5.26,5.26,0,0,0,.52,2.44,3.74,3.74,0,0,0,1.46,1.56,4.35,4.35,0,0,0,2.2.54,4.57,4.57,0,0,0,1.52-.24A3.36,3.36,0,0,0,146,33a3,3,0,0,0,.76-1.16l3.6.4a5.63,5.63,0,0,1-1.3,2.49,6.22,6.22,0,0,1-2.43,1.64A9.2,9.2,0,0,1,143.23,37Z"/><path d="M157.06,36.66,152.44,20.3h3.93l2.87,11.5h.15l2.94-11.5h3.89l2.94,11.44h.16l2.84-11.44h3.94l-4.64,16.36h-4L164.38,25.6h-.23l-3.06,11.06Z"/><path d="M186.42,14.84h4.84l6.47,15.81H198l6.48-15.81h4.83V36.66h-3.79v-15h-.2l-6,14.93h-2.84l-6-15h-.21v15h-3.79Z"/><path d="M220.57,37a8,8,0,0,1-4.15-1,7.15,7.15,0,0,1-2.72-3,9.67,9.67,0,0,1-1-4.43,9.75,9.75,0,0,1,1-4.44,7.09,7.09,0,0,1,2.72-3,8.67,8.67,0,0,1,8.31,0,7.09,7.09,0,0,1,2.72,3,9.75,9.75,0,0,1,1,4.44,9.67,9.67,0,0,1-1,4.43,7.15,7.15,0,0,1-2.72,3A8,8,0,0,1,220.57,37Zm0-3.09a3.3,3.3,0,0,0,2.17-.72,4.24,4.24,0,0,0,1.3-1.93,8.6,8.6,0,0,0,0-5.43,4.28,4.28,0,0,0-1.3-1.94,3.26,3.26,0,0,0-2.17-.73,3.31,3.31,0,0,0-2.21.73,4.22,4.22,0,0,0-1.31,1.94,8.6,8.6,0,0,0,0,5.43,4.18,4.18,0,0,0,1.31,1.93A3.36,3.36,0,0,0,220.6,33.89Z"/><path d="M231.68,36.66V14.84h3.85V36.66Zm3.51-5.13V26.87h.62l5.88-6.57h4.51L239,28.35h-.8ZM242,36.66l-5.33-7.45,2.6-2.71,7.34,10.16Z"/><circle cx="25.38" cy="25.5" r="25.5"/><path class="cls-1" d="M20.47,36.66H16.25l7.69-21.82h4.87l7.7,21.82H32.29L26.46,19.32h-.17Zm.14-8.55H32.12v3.17H20.61Z"/></svg>