<svg viewBox="0 0 60 60" xmlns="http://www.w3.org/2000/svg"><path d="m51.3 28.3-19.6-19.6c-.9-.9-2.4-.9-3.3 0l-4.4 4.3 4.8 4.8c.4-.1.8-.2 1.2-.2 1.8 0 3.3 1.5 3.3 3.3 0 .4-.1.8-.2 1.2l4.9 4.9c.3-.1.7-.2 1.1-.2 1.8 0 3.3 1.5 3.3 3.3s-1.5 3.3-3.3 3.3-3.3-1.5-3.3-3.3c0-.5.1-.9.3-1.3l-4.6-4.5v8.4 3.6c1.1.6 1.8 1.7 1.8 2.9 0 1.8-1.5 3.3-3.3 3.3s-3.3-1.5-3.3-3.3c0-1.4.8-2.5 2-3v-10.8-1.4c-1.2-.5-2-1.7-2-3 0-.4.1-.8.2-1.2l-4.8-4.8-13.4 13.3c-.9.9-.9 2.4 0 3.3l19.7 19.7c.9.9 2.4.9 3.3 0l19.7-19.7c.8-.9.8-2.3-.1-3.3z"/></svg>
