<?xml version="1.0" encoding="utf-8"?>
<!-- Generator: Adobe Illustrator 22.1.0, SVG Export Plug-In . SVG Version: 6.00 Build 0)  -->
<svg version="1.1" id="Layer_1" xmlns="http://www.w3.org/2000/svg" xmlns:xlink="http://www.w3.org/1999/xlink" x="0px" y="0px"
	 viewBox="0 0 60 60" style="enable-background:new 0 0 60 60;" xml:space="preserve">
<path d="M17,52H7V22h10V52z M12,18c-2.8,0-5-2.2-5-5s2.2-5,5-5c2.8,0,5,2.2,5,5C17,15.8,14.8,18,12,18z M53,52h-9.6V37.4
	c0-3.5-0.1-8-5-8c-5,0-5.8,3.8-5.8,7.7V52H23V22h9.2v4.1h0.1c1.3-2.4,4.4-4.8,9.1-4.8c9.7,0,11.5,6.2,11.5,14.3C53,35.5,53,52,53,52
	z"/>
</svg>
