<svg viewBox="0 0 60 60" xmlns="http://www.w3.org/2000/svg"><title>Android</title><path d="m19.7 6c-.5 0-1 .5-.9 1 0 .2.1.4.2.5l2.9 4.1c-2.7 2.1-4.7 5.2-5.2 8.8h26.8c-.5-3.6-2.4-6.7-5.2-8.8l2.9-4.1c.3-.4.2-1-.2-1.3-.3-.1-.5-.2-.7-.2-.3 0-.6.2-.8.4l-2.9 4.2c-1.9-1.1-4.2-1.7-6.6-1.7s-4.6.6-6.6 1.7l-2.9-4.2c-.1-.2-.5-.4-.8-.4zm4.5 6.7c1.1 0 1.9.9 1.9 1.9s-.9 1.9-1.9 1.9-1.9-.9-1.9-1.9.8-1.9 1.9-1.9zm11.6 0c1.1 0 1.9.9 1.9 1.9s-.9 1.9-1.9 1.9c-1.1 0-1.9-.9-1.9-1.9s.8-1.9 1.9-1.9zm-21.9 8.4c-1.1 0-1.9.9-1.9 1.9v15.5c0 1.1.9 1.9 1.9 1.9s1.9-.9 1.9-1.9v-15.4c0-1.1-.9-2-1.9-2zm2.6 0v19.3c0 2.1 1.7 3.9 3.9 3.9v6.8c0 1.6 1.3 2.9 2.9 2.9s2.9-1.3 2.9-2.9v-6.8h7.7v6.8c0 1.6 1.3 2.9 2.9 2.9s2.9-1.3 2.9-2.9v-6.8c2.1 0 3.9-1.7 3.9-3.9v-19.3zm29.6 0c-1.1 0-1.9.9-1.9 1.9v15.5c0 1.1.9 1.9 1.9 1.9s1.9-.9 1.9-1.9v-15.4c.1-1.1-.8-2-1.9-2z"/></svg>
