<svg viewBox="0 0 60 60" xmlns="http://www.w3.org/2000/svg"><title>GitHub</title><path d="m30 6.4c-13.3 0-24 10.7-24 24 0 11.2 7.7 20.6 18.2 23.2-.1-.3-.2-.7-.2-1.2v-4.1c-1 0-2.6 0-3 0-1.6 0-3.1-.7-3.8-2-.8-1.5-.9-3.7-2.9-5.1-.6-.5-.1-1 .5-.9 1.2.3 2.3 1.2 3.2 2.4 1 1.3 1.4 1.5 3.2 1.5.9 0 2.2 0 3.4-.2.7-1.7 1.8-3.2 3.2-3.9-8-.7-11.8-4.7-11.8-10.1 0-2.3 1-4.6 2.7-6.5-.6-1.9-1.2-5.7.2-7.2 3.6 0 5.8 2.3 6.3 3 1.8-.6 3.8-1 5.8-1 2.1 0 4 .3 5.8 1 .5-.6 2.7-3 6.3-3 1.5 1.5.8 5.3.2 7.2 1.7 1.9 2.7 4.2 2.7 6.5 0 5.4-3.8 9.4-11.8 10.2 2.2 1.1 3.8 4.4 3.8 6.8v5.5c0 .2 0 .4-.1.5 9.4-3.3 16.1-12.2 16.1-22.6 0-13.3-10.7-24-24-24z"/></svg>
