<svg viewBox="0 0 60 60" xmlns="http://www.w3.org/2000/svg"><title>Laravel</title><path d="m51.8 29c-.3-.3-4.3-5.4-5-6.2s-1-.7-1.5-.6-5.5.9-6.1 1-.9.3-.6.8 3.7 5.2 4.4 6.3l-13.3 3.2-10.6-17.8c-.4-.6-.5-.8-1.5-.8s-8.3.7-8.8.7c-.5.1-1.1.3-.6 1.5s8.9 19.2 9.1 19.8c.2.5.8 1.4 2.2 1 1.5-.4 6.5-1.7 9.3-2.4 1.5 2.6 4.4 7.9 5 8.7.7 1 1.3.8 2.4.5.9-.3 13.7-4.9 14.3-5.1s.9-.4.5-1c-.3-.4-3.7-5-5.4-7.3 1.2-.3 5.5-1.5 6-1.6.4-.1.5-.4.2-.7zm-24.2 5c-.2.1-7.6 1.8-8 1.9s-.4.1-.4-.1c-.1-.2-8.9-18.4-9-18.6s-.1-.4 0-.4 7.1-.6 7.3-.6c.3 0 .2.1.3.2 0 0 9.8 16.9 9.9 17.2.2.2.1.3-.1.4zm21 3.9c.1.2.3.3-.2.4-.4.2-12.6 4.3-12.9 4.4s-.4.2-.7-.3-4.3-7.3-4.3-7.3l13-3.4c.3-.1.4-.2.6.2.3.3 4.4 5.8 4.5 6zm.9-9.2c-.3.1-5.1 1.3-5.1 1.3l-3.9-5.3c-.1-.2-.2-.3.1-.4s4.7-.8 4.9-.9.4-.1.6.3c.3.3 3.6 4.6 3.8 4.8.1 0-.1.1-.4.2z"/></svg>
